<mxfile host="65bd71144e">
    <diagram id="MBHazL9knpsrGyM8WY2j" name="Page-1">
        <mxGraphModel dx="734" dy="274" grid="1" gridSize="10" guides="1" tooltips="1" connect="1" arrows="1" fold="1" page="1" pageScale="1" pageWidth="850" pageHeight="1100" math="0" shadow="0">
            <root>
                <mxCell id="0"/>
                <mxCell id="1" parent="0"/>
                <mxCell id="11" style="edgeStyle=none;html=1;exitX=1;exitY=0.5;exitDx=0;exitDy=0;fontSize=17;" edge="1" parent="1" source="2">
                    <mxGeometry relative="1" as="geometry">
                        <mxPoint x="390" y="80" as="targetPoint"/>
                    </mxGeometry>
                </mxCell>
                <mxCell id="2" value="Server (Nodejs , Java Spring boot)" style="whiteSpace=wrap;html=1;aspect=fixed;fontSize=17;" parent="1" vertex="1">
                    <mxGeometry x="10" y="10" width="140" height="140" as="geometry"/>
                </mxCell>
                <mxCell id="4" style="edgeStyle=none;html=1;" parent="1" source="3" edge="1">
                    <mxGeometry relative="1" as="geometry">
                        <mxPoint x="150" y="80" as="targetPoint"/>
                    </mxGeometry>
                </mxCell>
                <mxCell id="3" value="Client (React js)" style="rounded=1;whiteSpace=wrap;html=1;fontSize=17;" parent="1" vertex="1">
                    <mxGeometry x="390" y="10" width="140" height="140" as="geometry"/>
                </mxCell>
                <mxCell id="7" value="Socket User Cases:&lt;br&gt;&lt;br&gt;Chatting&lt;br style=&quot;font-size: 19px&quot;&gt;Live Feed&lt;br style=&quot;font-size: 19px&quot;&gt;Multiplayer gaming&lt;br style=&quot;font-size: 19px&quot;&gt;Showing client progress/logging" style="text;html=1;strokeColor=none;fillColor=none;align=left;verticalAlign=middle;whiteSpace=wrap;rounded=0;fontSize=19;" vertex="1" parent="1">
                    <mxGeometry x="30" y="360" width="410" height="160" as="geometry"/>
                </mxCell>
                <mxCell id="9" value="Websockets Pros and Cons&lt;br&gt;Pros:&lt;br&gt;&lt;ul&gt;&lt;li&gt;Full-duplex (no polling)&lt;/li&gt;&lt;/ul&gt;&lt;div&gt;Cons:&lt;/div&gt;&lt;div&gt;&lt;ul&gt;&lt;li&gt;Stateful , difficult to horizontally scale&lt;/li&gt;&lt;/ul&gt;&lt;/div&gt;" style="text;html=1;strokeColor=none;fillColor=none;align=left;verticalAlign=middle;whiteSpace=wrap;rounded=0;fontSize=19;" vertex="1" parent="1">
                    <mxGeometry x="40" y="920" width="410" height="160" as="geometry"/>
                </mxCell>
                <mxCell id="10" value="Do you have to use WebSockets?&lt;br&gt;&lt;br&gt;No! Rule of thumb - Do you absolutley need bidirectional communication?" style="text;html=1;strokeColor=none;fillColor=none;align=left;verticalAlign=middle;whiteSpace=wrap;rounded=0;fontSize=19;" vertex="1" parent="1">
                    <mxGeometry x="40" y="1620" width="630" height="160" as="geometry"/>
                </mxCell>
            </root>
        </mxGraphModel>
    </diagram>
</mxfile>